<svg xmlns="http://www.w3.org/2000/svg" width="512" height="512" viewBox="0 0 512 512" fill="none">
  <title>数据难感知</title>
  <desc>依据参考图重绘的独立矢量图标：三根数据柱与问号气泡。圆形浅绿底色，圆外透明；问号为可编辑矢量路径。</desc>
  <g id="background">
    <circle cx="256" cy="256" r="248" fill="#EAF3E3"/>
  </g>
  <g id="bar-chart" stroke="#3D5641" stroke-width="16" stroke-linejoin="round">
    <rect x="95" y="315" width="46" height="70" rx="17" fill="#A2B993"/>
    <rect x="168" y="278" width="47" height="107" rx="17" fill="#ACBF9A"/>
    <rect x="244" y="253" width="49" height="132" rx="17" fill="#97AF8C"/>
  </g>
  <g id="question-bubble">
    <path d="M282 88H351C387.4 88 410 110.6 410 147V175C410 211.4 387.4 234 351 234H344L325 261L304 234H282C245.6 234 223 211.4 223 175V147C223 110.6 245.6 88 282 88Z" fill="#FCEBC3" stroke="#415B47" stroke-width="16" stroke-linecap="round" stroke-linejoin="round"/>
    <g id="question-mark" stroke="#3D5641" stroke-width="17" stroke-linecap="round" stroke-linejoin="round">
      <path d="M298 139C298 124 310 116 323 119C336 122 342 134 337 146C333 155 322 156 318 164C316.5 167 317 171 317 176"/>
    </g>
    <circle cx="317" cy="201" r="9.5" fill="#3D5641"/>
  </g>
  <g id="accent-rays" stroke="#93AE86" stroke-width="21" stroke-linecap="round">
    <path d="M164 179L147 147"/>
    <path d="M130 208L106 192"/>
  </g>
</svg>
